<svg width="1928" height="1053" viewBox="0 0 1928 1053" fill="none" xmlns="http://www.w3.org/2000/svg">
<g clip-path="url(#clip0_2179_99)" filter="url(#filter0_d_2179_99)">
<rect width="1920" height="1045" transform="translate(4)" fill="#072C27"/>
<g opacity="0.22" filter="url(#filter1_d_2179_99)">
<circle cx="1924.45" cy="0.452148" r="2154.32" fill="#011A17"/>
</g>
<g opacity="0.22" filter="url(#filter2_d_2179_99)">
<circle cx="1924.45" cy="0.452393" r="1723.45" fill="#0A3B35"/>
</g>
<g opacity="0.22" filter="url(#filter3_d_2179_99)">
<circle cx="1924.45" cy="0.452393" r="1378.76" fill="#0E463F"/>
</g>
<g opacity="0.22" filter="url(#filter4_d_2179_99)">
<circle cx="1924.45" cy="0.452393" r="1103.01" fill="#15564D"/>
</g>
<g opacity="0.22" filter="url(#filter5_d_2179_99)">
<circle cx="1924.45" cy="0.452576" r="882.408" fill="#1C6258"/>
</g>
<g opacity="0.22" filter="url(#filter6_d_2179_99)">
<circle cx="1924.45" cy="0.452454" r="705.926" fill="#266B61"/>
</g>
<g opacity="0.22" filter="url(#filter7_d_2179_99)">
<circle cx="1924.45" cy="0.452332" r="564.741" fill="#307A70"/>
</g>
<g opacity="0.22" filter="url(#filter8_d_2179_99)">
<circle cx="1924.45" cy="0.452148" r="423.556" fill="#3D9D90"/>
</g>
<g clip-path="url(#clip1_2179_99)">
<path d="M872.586 261.743H931.187C940.122 261.743 946.668 262.882 950.824 265.161C955.188 267.232 957.993 270.546 959.24 275.103C960.695 279.452 961.422 284.941 961.422 291.569V340.036C961.422 347.492 960.799 354.535 959.552 361.163C958.305 367.583 955.084 372.865 949.889 377.008C944.694 380.943 936.174 382.911 924.329 382.911H888.483V454.368H872.586V261.743ZM920.277 370.173C928.589 370.173 934.823 368.101 938.979 363.959C943.343 359.609 945.525 352.567 945.525 342.832V297.783C945.525 288.876 943.966 282.766 940.849 279.452C937.94 276.138 932.433 274.481 924.329 274.481H888.483V370.173H920.277Z" fill="white"/>
<path d="M906.915 454.618C904.366 454.618 902.177 454.424 900.348 454.038C898.575 453.596 897.217 452.823 896.275 451.718C895.389 450.558 894.945 448.956 894.945 446.913V410.376C894.945 407.283 895.971 405.239 898.021 404.245C900.127 403.196 903.091 402.671 906.915 402.671C910.628 402.671 913.454 403.196 915.393 404.245C917.388 405.294 918.386 407.366 918.386 410.459V419.241L914.146 419.655V411.204C914.146 409.105 913.509 407.725 912.235 407.062C911.016 406.399 909.242 406.068 906.915 406.068C904.587 406.068 902.703 406.371 901.263 406.979C899.877 407.587 899.185 408.967 899.185 411.122V446.333C899.185 447.769 899.489 448.846 900.099 449.564C900.764 450.227 901.678 450.668 902.842 450.889C904.061 451.055 905.419 451.138 906.915 451.138C908.411 451.138 909.686 451.055 910.738 450.889C911.847 450.668 912.706 450.227 913.315 449.564C913.925 448.846 914.23 447.769 914.23 446.333V430.343H905.086L905.585 426.78H918.386V446.913C918.386 448.956 917.942 450.558 917.056 451.718C916.169 452.823 914.867 453.596 913.149 454.038C911.431 454.424 909.353 454.618 906.915 454.618ZM927.026 403.002H942.653C945.036 403.002 946.781 403.306 947.89 403.914C949.054 404.466 949.802 405.35 950.134 406.565C950.522 407.725 950.716 409.188 950.716 410.956V420.235C950.716 422.223 950.55 424.101 950.217 425.869C949.885 427.581 949.026 428.989 947.64 430.094C946.255 431.143 943.983 431.668 940.825 431.668H931.266V454.369H927.026V403.002ZM948.638 455.446L939.079 431.42L942.071 431.088L943.235 431.42L943.484 432L952.545 453.955L948.638 455.446ZM939.744 428.271C941.96 428.271 943.623 427.719 944.731 426.614C945.895 425.51 946.477 423.632 946.477 420.981V412.613C946.477 410.238 946.061 408.608 945.23 407.725C944.454 406.841 942.986 406.399 940.825 406.399H931.266V428.271H939.744ZM956.09 454.369L967.062 403.002H973.379L984.185 454.369H979.779L977.119 441.859L978.034 442.687H962.158L962.906 441.859L960.412 454.369H956.09ZM962.989 439.787L962.573 439.29H977.701L977.119 439.787L971.052 408.388L970.885 407.808H969.472L969.306 408.388L962.989 439.787ZM990.666 403.002H1013.61V406.399H994.905V423.798H1012.28L1011.61 427.112H994.905V454.369H990.666V403.002ZM1020.62 403.002H1024.86V454.369H1020.62V403.002ZM1040.48 406.399H1031.34V403.002H1054.03V406.399H1044.72V454.369H1040.48V406.399Z" fill="white"/>
</g>
<rect x="758" y="493.66" width="57.2445" height="57.2445" rx="28.6223" fill="#1F77B4"/>
<path d="M774.272 521.011C774.239 520.701 774.099 520.46 773.853 520.287C773.609 520.115 773.292 520.028 772.902 520.028C772.627 520.028 772.392 520.07 772.195 520.152C771.999 520.235 771.849 520.348 771.745 520.49C771.64 520.632 771.587 520.794 771.585 520.976C771.585 521.127 771.619 521.259 771.688 521.37C771.759 521.481 771.855 521.576 771.975 521.654C772.096 521.73 772.23 521.793 772.376 521.845C772.523 521.898 772.671 521.941 772.82 521.977L773.502 522.147C773.776 522.211 774.04 522.297 774.293 522.406C774.549 522.515 774.777 522.652 774.978 522.818C775.182 522.984 775.342 523.184 775.461 523.418C775.579 523.652 775.638 523.927 775.638 524.241C775.638 524.667 775.529 525.042 775.312 525.366C775.094 525.688 774.779 525.94 774.368 526.123C773.958 526.302 773.462 526.392 772.88 526.392C772.315 526.392 771.824 526.305 771.407 526.13C770.993 525.954 770.669 525.699 770.435 525.363C770.203 525.027 770.078 524.618 770.059 524.135H771.354C771.373 524.388 771.451 524.599 771.588 524.767C771.726 524.935 771.904 525.06 772.124 525.143C772.347 525.226 772.595 525.267 772.87 525.267C773.156 525.267 773.407 525.225 773.622 525.139C773.84 525.052 774.01 524.931 774.133 524.777C774.256 524.621 774.319 524.439 774.321 524.231C774.319 524.041 774.263 523.885 774.155 523.762C774.046 523.637 773.893 523.533 773.697 523.45C773.503 523.365 773.276 523.289 773.015 523.223L772.188 523.01C771.59 522.856 771.116 522.623 770.768 522.31C770.423 521.996 770.25 521.578 770.25 521.058C770.25 520.629 770.366 520.254 770.598 519.932C770.832 519.611 771.151 519.361 771.553 519.183C771.955 519.004 772.411 518.914 772.919 518.914C773.435 518.914 773.887 519.004 774.275 519.183C774.666 519.361 774.972 519.608 775.195 519.925C775.417 520.24 775.532 520.602 775.539 521.011H774.272ZM779.169 526.389C778.622 526.389 778.15 526.275 777.753 526.048C777.358 525.818 777.054 525.494 776.841 525.075C776.628 524.654 776.521 524.159 776.521 523.588C776.521 523.027 776.628 522.535 776.841 522.112C777.056 521.686 777.356 521.354 777.742 521.118C778.128 520.879 778.581 520.759 779.102 520.759C779.438 520.759 779.755 520.814 780.053 520.923C780.353 521.029 780.618 521.195 780.848 521.42C781.08 521.644 781.262 521.931 781.394 522.279C781.527 522.624 781.593 523.036 781.593 523.514V523.908H777.125V523.042H780.362C780.359 522.796 780.306 522.577 780.202 522.385C780.098 522.191 779.952 522.038 779.765 521.927C779.581 521.816 779.365 521.76 779.119 521.76C778.857 521.76 778.626 521.824 778.427 521.952C778.228 522.077 778.073 522.243 777.962 522.449C777.853 522.652 777.798 522.876 777.795 523.12V523.876C777.795 524.193 777.853 524.465 777.969 524.692C778.085 524.917 778.247 525.09 778.456 525.21C778.664 525.329 778.908 525.388 779.187 525.388C779.374 525.388 779.543 525.362 779.694 525.31C779.846 525.255 779.977 525.176 780.088 525.072C780.199 524.968 780.283 524.839 780.34 524.685L781.54 524.82C781.464 525.137 781.32 525.414 781.107 525.65C780.896 525.885 780.627 526.067 780.298 526.197C779.969 526.325 779.593 526.389 779.169 526.389ZM783.965 523.088V526.282H782.68V520.83H783.908V521.757H783.972C784.098 521.452 784.298 521.209 784.572 521.029C784.849 520.849 785.191 520.759 785.598 520.759C785.974 520.759 786.302 520.84 786.581 521.001C786.863 521.162 787.08 521.395 787.234 521.7C787.39 522.005 787.467 522.376 787.465 522.811V526.282H786.18V523.01C786.18 522.645 786.085 522.36 785.896 522.154C785.709 521.948 785.45 521.845 785.119 521.845C784.894 521.845 784.694 521.895 784.519 521.995C784.346 522.092 784.21 522.232 784.111 522.417C784.014 522.602 783.965 522.825 783.965 523.088ZM793.08 522.271L791.909 522.399C791.875 522.281 791.818 522.17 791.735 522.066C791.654 521.961 791.545 521.877 791.408 521.814C791.271 521.75 791.103 521.718 790.904 521.718C790.637 521.718 790.412 521.776 790.23 521.892C790.05 522.008 789.961 522.158 789.964 522.342C789.961 522.501 790.019 522.63 790.137 522.729C790.258 522.829 790.457 522.91 790.734 522.974L791.664 523.173C792.18 523.284 792.563 523.46 792.814 523.702C793.067 523.943 793.195 524.259 793.197 524.65C793.195 524.993 793.094 525.295 792.895 525.558C792.699 525.818 792.426 526.022 792.075 526.169C791.725 526.315 791.323 526.389 790.869 526.389C790.201 526.389 789.664 526.249 789.257 525.97C788.85 525.688 788.608 525.297 788.53 524.795L789.783 524.674C789.839 524.92 789.96 525.106 790.145 525.232C790.329 525.357 790.569 525.42 790.865 525.42C791.17 525.42 791.415 525.357 791.6 525.232C791.787 525.106 791.88 524.951 791.88 524.767C791.88 524.61 791.82 524.482 791.699 524.38C791.581 524.278 791.396 524.2 791.146 524.145L790.216 523.95C789.693 523.841 789.306 523.658 789.055 523.4C788.804 523.14 788.68 522.811 788.682 522.413C788.68 522.077 788.771 521.786 788.956 521.54C789.142 521.292 789.402 521.1 789.733 520.965C790.066 520.828 790.451 520.759 790.886 520.759C791.525 520.759 792.028 520.895 792.395 521.168C792.764 521.44 792.992 521.808 793.08 522.271ZM796.635 526.389C796.102 526.389 795.641 526.272 795.25 526.037C794.86 525.803 794.557 525.475 794.342 525.054C794.129 524.633 794.022 524.141 794.022 523.578C794.022 523.014 794.129 522.521 794.342 522.097C794.557 521.674 794.86 521.345 795.25 521.111C795.641 520.877 796.102 520.759 796.635 520.759C797.167 520.759 797.628 520.877 798.019 521.111C798.409 521.345 798.711 521.674 798.924 522.097C799.139 522.521 799.247 523.014 799.247 523.578C799.247 524.141 799.139 524.633 798.924 525.054C798.711 525.475 798.409 525.803 798.019 526.037C797.628 526.272 797.167 526.389 796.635 526.389ZM796.642 525.359C796.93 525.359 797.172 525.28 797.366 525.122C797.56 524.961 797.704 524.745 797.799 524.476C797.896 524.206 797.944 523.905 797.944 523.574C797.944 523.24 797.896 522.939 797.799 522.669C797.704 522.397 797.56 522.18 797.366 522.019C797.172 521.859 796.93 521.778 796.642 521.778C796.346 521.778 796.1 521.859 795.903 522.019C795.709 522.18 795.564 522.397 795.467 522.669C795.372 522.939 795.325 523.24 795.325 523.574C795.325 523.905 795.372 524.206 795.467 524.476C795.564 524.745 795.709 524.961 795.903 525.122C796.1 525.28 796.346 525.359 796.642 525.359ZM800.338 526.282V520.83H801.583V521.739H801.64C801.74 521.424 801.91 521.182 802.151 521.011C802.395 520.839 802.673 520.752 802.985 520.752C803.056 520.752 803.136 520.756 803.223 520.763C803.313 520.768 803.388 520.776 803.447 520.788V521.97C803.392 521.951 803.306 521.934 803.188 521.92C803.072 521.903 802.959 521.895 802.85 521.895C802.616 521.895 802.406 521.946 802.219 522.048C802.034 522.147 801.889 522.286 801.782 522.463C801.676 522.641 801.622 522.845 801.622 523.077V526.282H800.338Z" fill="white"/>
<path d="M862.735 522.282L857.589 519.311V525.253L862.735 522.282ZM828.428 522.282V522.797H858.104V522.282V521.768H828.428V522.282Z" fill="white"/>
<rect x="875.919" y="493.66" width="57.2445" height="57.2445" rx="28.6223" fill="#FF7F0E"/>
<path d="M884.184 526.282V519.013H888.841V520.117H885.501V522.09H888.522V523.194H885.501V526.282H884.184ZM891.997 526.389C891.451 526.389 890.979 526.275 890.581 526.048C890.186 525.818 889.882 525.494 889.669 525.075C889.456 524.654 889.349 524.159 889.349 523.588C889.349 523.027 889.456 522.535 889.669 522.112C889.884 521.686 890.185 521.354 890.57 521.118C890.956 520.879 891.409 520.759 891.93 520.759C892.266 520.759 892.583 520.814 892.881 520.923C893.182 521.029 893.447 521.195 893.676 521.42C893.908 521.644 894.09 521.931 894.223 522.279C894.355 522.624 894.421 523.036 894.421 523.514V523.908H889.953V523.042H893.19C893.187 522.796 893.134 522.577 893.03 522.385C892.926 522.191 892.78 522.038 892.594 521.927C892.409 521.816 892.194 521.76 891.948 521.76C891.685 521.76 891.454 521.824 891.255 521.952C891.057 522.077 890.902 522.243 890.79 522.449C890.682 522.652 890.626 522.876 890.624 523.12V523.876C890.624 524.193 890.682 524.465 890.798 524.692C890.913 524.917 891.076 525.09 891.284 525.21C891.492 525.329 891.736 525.388 892.015 525.388C892.202 525.388 892.371 525.362 892.523 525.31C892.674 525.255 892.805 525.176 892.917 525.072C893.028 524.968 893.112 524.839 893.169 524.685L894.368 524.82C894.293 525.137 894.148 525.414 893.935 525.65C893.725 525.885 893.455 526.067 893.126 526.197C892.797 526.325 892.421 526.389 891.997 526.389ZM897.077 526.392C896.732 526.392 896.421 526.331 896.144 526.208C895.869 526.082 895.652 525.898 895.491 525.654C895.332 525.41 895.253 525.11 895.253 524.752C895.253 524.445 895.31 524.19 895.423 523.989C895.537 523.788 895.692 523.627 895.888 523.507C896.085 523.386 896.306 523.295 896.552 523.233C896.8 523.169 897.057 523.123 897.322 523.095C897.642 523.062 897.901 523.032 898.1 523.006C898.298 522.978 898.443 522.935 898.533 522.878C898.625 522.819 898.671 522.728 898.671 522.605V522.584C898.671 522.316 898.592 522.109 898.433 521.963C898.275 521.816 898.046 521.743 897.748 521.743C897.433 521.743 897.184 521.811 896.999 521.948C896.817 522.086 896.694 522.248 896.63 522.435L895.43 522.264C895.525 521.933 895.681 521.656 895.899 521.434C896.117 521.209 896.383 521.041 896.698 520.93C897.012 520.816 897.36 520.759 897.741 520.759C898.004 520.759 898.265 520.79 898.525 520.852C898.786 520.913 899.024 521.015 899.239 521.157C899.454 521.297 899.627 521.487 899.757 521.728C899.89 521.97 899.956 522.271 899.956 522.633V526.282H898.721V525.533H898.678C898.6 525.685 898.49 525.827 898.348 525.959C898.208 526.089 898.032 526.195 897.819 526.275C897.609 526.353 897.361 526.392 897.077 526.392ZM897.411 525.448C897.669 525.448 897.892 525.397 898.082 525.295C898.271 525.191 898.417 525.054 898.518 524.884C898.622 524.713 898.675 524.528 898.675 524.327V523.684C898.634 523.717 898.566 523.748 898.469 523.776C898.374 523.805 898.268 523.83 898.149 523.851C898.031 523.872 897.914 523.891 897.798 523.908C897.682 523.924 897.581 523.938 897.496 523.95C897.304 523.976 897.133 524.019 896.981 524.078C896.83 524.137 896.711 524.22 896.623 524.327C896.535 524.431 896.492 524.566 896.492 524.731C896.492 524.968 896.578 525.146 896.751 525.267C896.923 525.388 897.144 525.448 897.411 525.448ZM903.97 520.83V521.824H900.836V520.83H903.97ZM901.61 519.524H902.895V524.642C902.895 524.815 902.921 524.948 902.973 525.04C903.027 525.13 903.098 525.191 903.186 525.225C903.273 525.258 903.37 525.274 903.477 525.274C903.557 525.274 903.631 525.268 903.697 525.256C903.766 525.245 903.818 525.234 903.853 525.225L904.07 526.229C904.001 526.253 903.903 526.279 903.775 526.307C903.65 526.335 903.496 526.352 903.314 526.357C902.992 526.366 902.702 526.318 902.444 526.211C902.186 526.102 901.981 525.934 901.83 525.707C901.681 525.48 901.607 525.196 901.61 524.855V519.524ZM908.52 523.989V520.83H909.805V526.282H908.559V525.313H908.502C908.379 525.618 908.177 525.868 907.895 526.062C907.616 526.256 907.271 526.353 906.862 526.353C906.505 526.353 906.189 526.274 905.914 526.115C905.642 525.954 905.429 525.721 905.275 525.416C905.122 525.109 905.045 524.737 905.045 524.302V520.83H906.33V524.103C906.33 524.448 906.424 524.723 906.614 524.926C906.803 525.13 907.051 525.232 907.359 525.232C907.548 525.232 907.732 525.185 907.909 525.093C908.087 525.001 908.232 524.864 908.346 524.681C908.462 524.497 908.52 524.266 908.52 523.989ZM911.126 526.282V520.83H912.372V521.739H912.428C912.528 521.424 912.698 521.182 912.94 521.011C913.183 520.839 913.461 520.752 913.774 520.752C913.845 520.752 913.924 520.756 914.011 520.763C914.101 520.768 914.176 520.776 914.235 520.788V521.97C914.181 521.951 914.094 521.934 913.976 521.92C913.86 521.903 913.748 521.895 913.639 521.895C913.404 521.895 913.194 521.946 913.007 522.048C912.822 522.147 912.677 522.286 912.57 522.463C912.464 522.641 912.411 522.845 912.411 523.077V526.282H911.126ZM917.278 526.389C916.731 526.389 916.259 526.275 915.862 526.048C915.466 525.818 915.162 525.494 914.949 525.075C914.736 524.654 914.63 524.159 914.63 523.588C914.63 523.027 914.736 522.535 914.949 522.112C915.165 521.686 915.465 521.354 915.851 521.118C916.237 520.879 916.69 520.759 917.21 520.759C917.546 520.759 917.863 520.814 918.162 520.923C918.462 521.029 918.727 521.195 918.957 521.42C919.189 521.644 919.371 521.931 919.503 522.279C919.636 522.624 919.702 523.036 919.702 523.514V523.908H915.233V523.042H918.47C918.468 522.796 918.415 522.577 918.311 522.385C918.207 522.191 918.061 522.038 917.874 521.927C917.689 521.816 917.474 521.76 917.228 521.76C916.965 521.76 916.735 521.824 916.536 521.952C916.337 522.077 916.182 522.243 916.071 522.449C915.962 522.652 915.907 522.876 915.904 523.12V523.876C915.904 524.193 915.962 524.465 916.078 524.692C916.194 524.917 916.356 525.09 916.564 525.21C916.773 525.329 917.016 525.388 917.295 525.388C917.482 525.388 917.652 525.362 917.803 525.31C917.954 525.255 918.086 525.176 918.197 525.072C918.308 524.968 918.392 524.839 918.449 524.685L919.649 524.82C919.573 525.137 919.429 525.414 919.216 525.65C919.005 525.885 918.735 526.067 918.406 526.197C918.078 526.325 917.701 526.389 917.278 526.389ZM925.098 522.271L923.927 522.399C923.894 522.281 923.836 522.17 923.753 522.066C923.672 521.961 923.563 521.877 923.426 521.814C923.289 521.75 923.121 521.718 922.922 521.718C922.655 521.718 922.43 521.776 922.248 521.892C922.068 522.008 921.979 522.158 921.982 522.342C921.979 522.501 922.037 522.63 922.155 522.729C922.276 522.829 922.475 522.91 922.752 522.974L923.682 523.173C924.198 523.284 924.581 523.46 924.832 523.702C925.085 523.943 925.213 524.259 925.215 524.65C925.213 524.993 925.112 525.295 924.913 525.558C924.717 525.818 924.444 526.022 924.093 526.169C923.743 526.315 923.341 526.389 922.887 526.389C922.219 526.389 921.682 526.249 921.275 525.97C920.868 525.688 920.626 525.297 920.548 524.795L921.801 524.674C921.857 524.92 921.978 525.106 922.163 525.232C922.347 525.357 922.587 525.42 922.883 525.42C923.188 525.42 923.433 525.357 923.618 525.232C923.805 525.106 923.898 524.951 923.898 524.767C923.898 524.61 923.838 524.482 923.717 524.38C923.599 524.278 923.414 524.2 923.164 524.145L922.234 523.95C921.711 523.841 921.324 523.658 921.073 523.4C920.822 523.14 920.698 522.811 920.7 522.413C920.698 522.077 920.789 521.786 920.974 521.54C921.16 521.292 921.42 521.1 921.751 520.965C922.085 520.828 922.469 520.759 922.904 520.759C923.543 520.759 924.046 520.895 924.413 521.168C924.782 521.44 925.01 521.808 925.098 522.271Z" fill="white"/>
<path d="M980.654 522.282L975.508 519.311V525.253L980.654 522.282ZM946.346 522.282V522.797H976.022V522.282V521.768H946.346V522.282Z" fill="white"/>
<rect x="993.837" y="493.66" width="57.2445" height="57.2445" rx="28.6223" fill="#41A941"/>
<path d="M1008.19 519.013H1009.8L1011.96 524.28H1012.05L1014.21 519.013H1015.82V526.282H1014.55V521.288H1014.49L1012.48 526.261H1011.53L1009.52 521.278H1009.46V526.282H1008.19V519.013ZM1019.57 526.389C1019.04 526.389 1018.58 526.272 1018.19 526.037C1017.8 525.803 1017.5 525.475 1017.28 525.054C1017.07 524.633 1016.96 524.141 1016.96 523.578C1016.96 523.014 1017.07 522.521 1017.28 522.097C1017.5 521.674 1017.8 521.345 1018.19 521.111C1018.58 520.877 1019.04 520.759 1019.57 520.759C1020.11 520.759 1020.57 520.877 1020.96 521.111C1021.35 521.345 1021.65 521.674 1021.86 522.097C1022.08 522.521 1022.19 523.014 1022.19 523.578C1022.19 524.141 1022.08 524.633 1021.86 525.054C1021.65 525.475 1021.35 525.803 1020.96 526.037C1020.57 526.272 1020.11 526.389 1019.57 526.389ZM1019.58 525.359C1019.87 525.359 1020.11 525.28 1020.3 525.122C1020.5 524.961 1020.64 524.745 1020.74 524.476C1020.83 524.206 1020.88 523.905 1020.88 523.574C1020.88 523.24 1020.83 522.939 1020.74 522.669C1020.64 522.397 1020.5 522.18 1020.3 522.019C1020.11 521.859 1019.87 521.778 1019.58 521.778C1019.28 521.778 1019.04 521.859 1018.84 522.019C1018.65 522.18 1018.5 522.397 1018.41 522.669C1018.31 522.939 1018.26 523.24 1018.26 523.574C1018.26 523.905 1018.31 524.206 1018.41 524.476C1018.5 524.745 1018.65 524.961 1018.84 525.122C1019.04 525.28 1019.28 525.359 1019.58 525.359ZM1025.3 526.378C1024.87 526.378 1024.49 526.268 1024.15 526.048C1023.81 525.828 1023.54 525.508 1023.35 525.09C1023.15 524.671 1023.05 524.162 1023.05 523.563C1023.05 522.958 1023.15 522.447 1023.35 522.03C1023.55 521.611 1023.82 521.295 1024.16 521.082C1024.5 520.867 1024.88 520.759 1025.3 520.759C1025.62 520.759 1025.88 520.814 1026.09 520.923C1026.3 521.029 1026.46 521.158 1026.58 521.31C1026.7 521.459 1026.79 521.599 1026.86 521.732H1026.91V519.013H1028.2V526.282H1026.94V525.423H1026.86C1026.79 525.556 1026.7 525.697 1026.57 525.846C1026.45 525.992 1026.28 526.118 1026.08 526.222C1025.87 526.326 1025.61 526.378 1025.3 526.378ZM1025.66 525.324C1025.93 525.324 1026.16 525.251 1026.35 525.104C1026.54 524.955 1026.69 524.748 1026.79 524.483C1026.89 524.218 1026.94 523.909 1026.94 523.556C1026.94 523.204 1026.89 522.897 1026.79 522.637C1026.69 522.377 1026.55 522.174 1026.36 522.03C1026.17 521.886 1025.93 521.814 1025.66 521.814C1025.37 521.814 1025.13 521.888 1024.94 522.037C1024.75 522.186 1024.6 522.392 1024.51 522.655C1024.41 522.917 1024.36 523.218 1024.36 523.556C1024.36 523.897 1024.41 524.201 1024.51 524.468C1024.61 524.734 1024.75 524.943 1024.94 525.097C1025.14 525.248 1025.38 525.324 1025.66 525.324ZM1031.98 526.389C1031.44 526.389 1030.97 526.275 1030.57 526.048C1030.17 525.818 1029.87 525.494 1029.66 525.075C1029.44 524.654 1029.34 524.159 1029.34 523.588C1029.34 523.027 1029.44 522.535 1029.66 522.112C1029.87 521.686 1030.17 521.354 1030.56 521.118C1030.94 520.879 1031.4 520.759 1031.92 520.759C1032.25 520.759 1032.57 520.814 1032.87 520.923C1033.17 521.029 1033.43 521.195 1033.66 521.42C1033.9 521.644 1034.08 521.931 1034.21 522.279C1034.34 522.624 1034.41 523.036 1034.41 523.514V523.908H1029.94V523.042H1033.18C1033.18 522.796 1033.12 522.577 1033.02 522.385C1032.91 522.191 1032.77 522.038 1032.58 521.927C1032.4 521.816 1032.18 521.76 1031.94 521.76C1031.67 521.76 1031.44 521.824 1031.24 521.952C1031.04 522.077 1030.89 522.243 1030.78 522.449C1030.67 522.652 1030.61 522.876 1030.61 523.12V523.876C1030.61 524.193 1030.67 524.465 1030.79 524.692C1030.9 524.917 1031.06 525.09 1031.27 525.21C1031.48 525.329 1031.72 525.388 1032 525.388C1032.19 525.388 1032.36 525.362 1032.51 525.31C1032.66 525.255 1032.79 525.176 1032.9 525.072C1033.02 524.968 1033.1 524.839 1033.16 524.685L1034.36 524.82C1034.28 525.137 1034.14 525.414 1033.92 525.65C1033.71 525.885 1033.44 526.067 1033.11 526.197C1032.78 526.325 1032.41 526.389 1031.98 526.389ZM1036.78 519.013V526.282H1035.5V519.013H1036.78Z" fill="white"/>
<path d="M1098.57 522.282L1093.43 519.311V525.253L1098.57 522.282ZM1064.26 522.282V522.797H1093.94V522.282V521.768H1064.26V522.282Z" fill="white"/>
<rect x="1111.76" y="493.66" width="57.2445" height="57.2445" rx="28.6223" fill="#D62728"/>
<path d="M1129.65 520.282V513.013H1134.3V514.117H1130.96V516.09H1133.98V517.194H1130.96V520.282H1129.65ZM1135.44 520.282V514.83H1136.73V520.282H1135.44ZM1136.09 514.057C1135.89 514.057 1135.71 513.989 1135.57 513.854C1135.42 513.717 1135.35 513.553 1135.35 513.361C1135.35 513.167 1135.42 513.002 1135.57 512.868C1135.71 512.73 1135.89 512.662 1136.09 512.662C1136.3 512.662 1136.47 512.73 1136.62 512.868C1136.76 513.002 1136.84 513.167 1136.84 513.361C1136.84 513.553 1136.76 513.717 1136.62 513.854C1136.47 513.989 1136.3 514.057 1136.09 514.057ZM1139.34 517.088V520.282H1138.05V514.83H1139.28V515.757H1139.34C1139.47 515.452 1139.67 515.209 1139.94 515.029C1140.22 514.849 1140.56 514.759 1140.97 514.759C1141.34 514.759 1141.67 514.84 1141.95 515.001C1142.23 515.162 1142.45 515.395 1142.6 515.7C1142.76 516.005 1142.84 516.376 1142.84 516.811V520.282H1141.55V517.01C1141.55 516.645 1141.46 516.36 1141.27 516.154C1141.08 515.948 1140.82 515.845 1140.49 515.845C1140.26 515.845 1140.06 515.895 1139.89 515.995C1139.72 516.092 1139.58 516.232 1139.48 516.417C1139.38 516.602 1139.34 516.825 1139.34 517.088ZM1145.71 520.392C1145.37 520.392 1145.05 520.331 1144.78 520.208C1144.5 520.082 1144.29 519.898 1144.12 519.654C1143.97 519.41 1143.89 519.11 1143.89 518.752C1143.89 518.445 1143.94 518.19 1144.06 517.989C1144.17 517.788 1144.33 517.627 1144.52 517.507C1144.72 517.386 1144.94 517.295 1145.19 517.233C1145.43 517.169 1145.69 517.123 1145.96 517.095C1146.28 517.062 1146.53 517.032 1146.73 517.006C1146.93 516.978 1147.08 516.935 1147.17 516.878C1147.26 516.819 1147.3 516.728 1147.3 516.605V516.584C1147.3 516.316 1147.23 516.109 1147.07 515.963C1146.91 515.816 1146.68 515.743 1146.38 515.743C1146.07 515.743 1145.82 515.811 1145.63 515.948C1145.45 516.086 1145.33 516.248 1145.26 516.435L1144.06 516.264C1144.16 515.933 1144.31 515.656 1144.53 515.434C1144.75 515.209 1145.02 515.041 1145.33 514.93C1145.65 514.816 1145.99 514.759 1146.37 514.759C1146.64 514.759 1146.9 514.79 1147.16 514.852C1147.42 514.913 1147.66 515.015 1147.87 515.157C1148.09 515.297 1148.26 515.487 1148.39 515.728C1148.52 515.97 1148.59 516.271 1148.59 516.633V520.282H1147.35V519.533H1147.31C1147.23 519.685 1147.12 519.827 1146.98 519.959C1146.84 520.089 1146.67 520.195 1146.45 520.275C1146.24 520.353 1145.99 520.392 1145.71 520.392ZM1146.04 519.448C1146.3 519.448 1146.53 519.397 1146.72 519.295C1146.9 519.191 1147.05 519.054 1147.15 518.884C1147.26 518.713 1147.31 518.528 1147.31 518.327V517.684C1147.27 517.717 1147.2 517.748 1147.1 517.776C1147.01 517.805 1146.9 517.83 1146.78 517.851C1146.66 517.872 1146.55 517.891 1146.43 517.908C1146.32 517.924 1146.21 517.938 1146.13 517.95C1145.94 517.976 1145.77 518.019 1145.61 518.078C1145.46 518.137 1145.34 518.22 1145.26 518.327C1145.17 518.431 1145.13 518.566 1145.13 518.731C1145.13 518.968 1145.21 519.146 1145.38 519.267C1145.56 519.388 1145.78 519.448 1146.04 519.448ZM1151.17 513.013V520.282H1149.88V513.013H1151.17ZM1129.35 527.011C1129.32 526.701 1129.18 526.46 1128.93 526.287C1128.69 526.115 1128.37 526.028 1127.98 526.028C1127.71 526.028 1127.47 526.07 1127.27 526.152C1127.08 526.235 1126.93 526.348 1126.82 526.49C1126.72 526.632 1126.67 526.794 1126.66 526.976C1126.66 527.127 1126.7 527.259 1126.77 527.37C1126.84 527.481 1126.93 527.576 1127.05 527.654C1127.17 527.73 1127.31 527.793 1127.45 527.845C1127.6 527.898 1127.75 527.941 1127.9 527.977L1128.58 528.147C1128.85 528.211 1129.12 528.297 1129.37 528.406C1129.63 528.515 1129.85 528.652 1130.06 528.818C1130.26 528.984 1130.42 529.184 1130.54 529.418C1130.66 529.652 1130.72 529.927 1130.72 530.241C1130.72 530.667 1130.61 531.042 1130.39 531.366C1130.17 531.688 1129.86 531.94 1129.45 532.123C1129.04 532.302 1128.54 532.392 1127.96 532.392C1127.39 532.392 1126.9 532.305 1126.49 532.13C1126.07 531.954 1125.75 531.699 1125.51 531.363C1125.28 531.027 1125.16 530.618 1125.14 530.135H1126.43C1126.45 530.388 1126.53 530.599 1126.67 530.767C1126.8 530.935 1126.98 531.06 1127.2 531.143C1127.42 531.226 1127.67 531.267 1127.95 531.267C1128.23 531.267 1128.48 531.225 1128.7 531.139C1128.92 531.052 1129.09 530.931 1129.21 530.777C1129.33 530.621 1129.4 530.439 1129.4 530.231C1129.4 530.041 1129.34 529.885 1129.23 529.762C1129.12 529.637 1128.97 529.533 1128.77 529.45C1128.58 529.365 1128.35 529.289 1128.09 529.223L1127.27 529.01C1126.67 528.856 1126.19 528.623 1125.85 528.31C1125.5 527.996 1125.33 527.578 1125.33 527.058C1125.33 526.629 1125.44 526.254 1125.68 525.932C1125.91 525.611 1126.23 525.361 1126.63 525.183C1127.03 525.004 1127.49 524.914 1128 524.914C1128.51 524.914 1128.97 525.004 1129.35 525.183C1129.74 525.361 1130.05 525.608 1130.27 525.925C1130.5 526.24 1130.61 526.602 1130.62 527.011H1129.35ZM1134.56 526.83V527.824H1131.42V526.83H1134.56ZM1132.2 525.524H1133.48V530.642C1133.48 530.815 1133.51 530.948 1133.56 531.04C1133.61 531.13 1133.68 531.191 1133.77 531.225C1133.86 531.258 1133.96 531.274 1134.06 531.274C1134.14 531.274 1134.22 531.268 1134.28 531.256C1134.35 531.245 1134.4 531.234 1134.44 531.225L1134.66 532.229C1134.59 532.253 1134.49 532.279 1134.36 532.307C1134.24 532.335 1134.08 532.352 1133.9 532.357C1133.58 532.366 1133.29 532.318 1133.03 532.211C1132.77 532.102 1132.57 531.934 1132.42 531.707C1132.27 531.48 1132.19 531.196 1132.2 530.855V525.524ZM1137.2 532.392C1136.85 532.392 1136.54 532.331 1136.27 532.208C1135.99 532.082 1135.77 531.898 1135.61 531.654C1135.45 531.41 1135.37 531.11 1135.37 530.752C1135.37 530.445 1135.43 530.19 1135.55 529.989C1135.66 529.788 1135.81 529.627 1136.01 529.507C1136.21 529.386 1136.43 529.295 1136.67 529.233C1136.92 529.169 1137.18 529.123 1137.44 529.095C1137.76 529.062 1138.02 529.032 1138.22 529.006C1138.42 528.978 1138.56 528.935 1138.65 528.878C1138.75 528.819 1138.79 528.728 1138.79 528.605V528.584C1138.79 528.316 1138.71 528.109 1138.56 527.963C1138.4 527.816 1138.17 527.743 1137.87 527.743C1137.56 527.743 1137.31 527.811 1137.12 527.948C1136.94 528.086 1136.82 528.248 1136.75 528.435L1135.55 528.264C1135.65 527.933 1135.8 527.656 1136.02 527.434C1136.24 527.209 1136.5 527.041 1136.82 526.93C1137.13 526.816 1137.48 526.759 1137.86 526.759C1138.13 526.759 1138.39 526.79 1138.65 526.852C1138.91 526.913 1139.15 527.015 1139.36 527.157C1139.58 527.297 1139.75 527.487 1139.88 527.728C1140.01 527.97 1140.08 528.271 1140.08 528.633V532.282H1138.84V531.533H1138.8C1138.72 531.685 1138.61 531.827 1138.47 531.959C1138.33 532.089 1138.15 532.195 1137.94 532.275C1137.73 532.353 1137.48 532.392 1137.2 532.392ZM1137.53 531.448C1137.79 531.448 1138.01 531.397 1138.2 531.295C1138.39 531.191 1138.54 531.054 1138.64 530.884C1138.74 530.713 1138.8 530.528 1138.8 530.327V529.684C1138.76 529.717 1138.69 529.748 1138.59 529.776C1138.5 529.805 1138.39 529.83 1138.27 529.851C1138.15 529.872 1138.04 529.891 1137.92 529.908C1137.8 529.924 1137.7 529.938 1137.62 529.95C1137.43 529.976 1137.25 530.019 1137.1 530.078C1136.95 530.137 1136.83 530.22 1136.74 530.327C1136.66 530.431 1136.61 530.566 1136.61 530.731C1136.61 530.968 1136.7 531.146 1136.87 531.267C1137.05 531.388 1137.27 531.448 1137.53 531.448ZM1144.09 526.83V527.824H1140.96V526.83H1144.09ZM1141.73 525.524H1143.02V530.642C1143.02 530.815 1143.04 530.948 1143.09 531.04C1143.15 531.13 1143.22 531.191 1143.31 531.225C1143.4 531.258 1143.49 531.274 1143.6 531.274C1143.68 531.274 1143.75 531.268 1143.82 531.256C1143.89 531.245 1143.94 531.234 1143.98 531.225L1144.19 532.229C1144.12 532.253 1144.02 532.279 1143.9 532.307C1143.77 532.335 1143.62 532.352 1143.44 532.357C1143.11 532.366 1142.82 532.318 1142.57 532.211C1142.31 532.102 1142.1 531.934 1141.95 531.707C1141.8 531.48 1141.73 531.196 1141.73 530.855V525.524ZM1148.64 529.989V526.83H1149.93V532.282H1148.68V531.313H1148.62C1148.5 531.618 1148.3 531.868 1148.02 532.062C1147.74 532.256 1147.39 532.353 1146.98 532.353C1146.63 532.353 1146.31 532.274 1146.04 532.115C1145.76 531.954 1145.55 531.721 1145.4 531.416C1145.24 531.109 1145.17 530.737 1145.17 530.302V526.83H1146.45V530.103C1146.45 530.448 1146.55 530.723 1146.74 530.926C1146.92 531.13 1147.17 531.232 1147.48 531.232C1147.67 531.232 1147.85 531.185 1148.03 531.093C1148.21 531.001 1148.35 530.864 1148.47 530.681C1148.58 530.497 1148.64 530.266 1148.64 529.989ZM1155.56 528.271L1154.39 528.399C1154.35 528.281 1154.29 528.17 1154.21 528.066C1154.13 527.961 1154.02 527.877 1153.88 527.814C1153.75 527.75 1153.58 527.718 1153.38 527.718C1153.11 527.718 1152.89 527.776 1152.71 527.892C1152.53 528.008 1152.44 528.158 1152.44 528.342C1152.44 528.501 1152.5 528.63 1152.61 528.729C1152.73 528.829 1152.93 528.91 1153.21 528.974L1154.14 529.173C1154.66 529.284 1155.04 529.46 1155.29 529.702C1155.54 529.943 1155.67 530.259 1155.67 530.65C1155.67 530.993 1155.57 531.295 1155.37 531.558C1155.18 531.818 1154.9 532.022 1154.55 532.169C1154.2 532.315 1153.8 532.389 1153.35 532.389C1152.68 532.389 1152.14 532.249 1151.73 531.97C1151.33 531.688 1151.08 531.297 1151.01 530.795L1152.26 530.674C1152.32 530.92 1152.44 531.106 1152.62 531.232C1152.81 531.357 1153.05 531.42 1153.34 531.42C1153.65 531.42 1153.89 531.357 1154.08 531.232C1154.26 531.106 1154.36 530.951 1154.36 530.767C1154.36 530.61 1154.3 530.482 1154.18 530.38C1154.06 530.278 1153.87 530.2 1153.62 530.145L1152.69 529.95C1152.17 529.841 1151.78 529.658 1151.53 529.4C1151.28 529.14 1151.16 528.811 1151.16 528.413C1151.16 528.077 1151.25 527.786 1151.43 527.54C1151.62 527.292 1151.88 527.1 1152.21 526.965C1152.54 526.828 1152.93 526.759 1153.36 526.759C1154 526.759 1154.5 526.895 1154.87 527.168C1155.24 527.44 1155.47 527.808 1155.56 528.271Z" fill="white"/>
</g>
<defs>
<filter id="filter0_d_2179_99" x="0" y="0" width="1928" height="1053" filterUnits="userSpaceOnUse" color-interpolation-filters="sRGB">
<feFlood flood-opacity="0" result="BackgroundImageFix"/>
<feColorMatrix in="SourceAlpha" type="matrix" values="0 0 0 0 0 0 0 0 0 0 0 0 0 0 0 0 0 0 127 0" result="hardAlpha"/>
<feOffset dy="4"/>
<feGaussianBlur stdDeviation="2"/>
<feComposite in2="hardAlpha" operator="out"/>
<feColorMatrix type="matrix" values="0 0 0 0 0 0 0 0 0 0 0 0 0 0 0 0 0 0 0.25 0"/>
<feBlend mode="normal" in2="BackgroundImageFix" result="effect1_dropShadow_2179_99"/>
<feBlend mode="normal" in="SourceGraphic" in2="effect1_dropShadow_2179_99" result="shape"/>
</filter>
<filter id="filter1_d_2179_99" x="-260.893" y="-2179.25" width="4370.69" height="4370.69" filterUnits="userSpaceOnUse" color-interpolation-filters="sRGB">
<feFlood flood-opacity="0" result="BackgroundImageFix"/>
<feColorMatrix in="SourceAlpha" type="matrix" values="0 0 0 0 0 0 0 0 0 0 0 0 0 0 0 0 0 0 127 0" result="hardAlpha"/>
<feOffset dy="5.64177"/>
<feGaussianBlur stdDeviation="15.5149"/>
<feComposite in2="hardAlpha" operator="out"/>
<feColorMatrix type="matrix" values="0 0 0 0 0 0 0 0 0 0 0 0 0 0 0 0 0 0 0.25 0"/>
<feBlend mode="normal" in2="BackgroundImageFix" result="effect1_dropShadow_2179_99"/>
<feBlend mode="normal" in="SourceGraphic" in2="effect1_dropShadow_2179_99" result="shape"/>
</filter>
<filter id="filter2_d_2179_99" x="176.176" y="-1743.31" width="3496.55" height="3496.55" filterUnits="userSpaceOnUse" color-interpolation-filters="sRGB">
<feFlood flood-opacity="0" result="BackgroundImageFix"/>
<feColorMatrix in="SourceAlpha" type="matrix" values="0 0 0 0 0 0 0 0 0 0 0 0 0 0 0 0 0 0 127 0" result="hardAlpha"/>
<feOffset dy="4.51341"/>
<feGaussianBlur stdDeviation="12.4119"/>
<feComposite in2="hardAlpha" operator="out"/>
<feColorMatrix type="matrix" values="0 0 0 0 0 0 0 0 0 0 0 0 0 0 0 0 0 0 0.25 0"/>
<feBlend mode="normal" in2="BackgroundImageFix" result="effect1_dropShadow_2179_99"/>
<feBlend mode="normal" in="SourceGraphic" in2="effect1_dropShadow_2179_99" result="shape"/>
</filter>
<filter id="filter3_d_2179_99" x="520.867" y="-1398.62" width="2807.17" height="2807.17" filterUnits="userSpaceOnUse" color-interpolation-filters="sRGB">
<feFlood flood-opacity="0" result="BackgroundImageFix"/>
<feColorMatrix in="SourceAlpha" type="matrix" values="0 0 0 0 0 0 0 0 0 0 0 0 0 0 0 0 0 0 127 0" result="hardAlpha"/>
<feOffset dy="4.51341"/>
<feGaussianBlur stdDeviation="12.4119"/>
<feComposite in2="hardAlpha" operator="out"/>
<feColorMatrix type="matrix" values="0 0 0 0 0 0 0 0 0 0 0 0 0 0 0 0 0 0 0.25 0"/>
<feBlend mode="normal" in2="BackgroundImageFix" result="effect1_dropShadow_2179_99"/>
<feBlend mode="normal" in="SourceGraphic" in2="effect1_dropShadow_2179_99" result="shape"/>
</filter>
<filter id="filter4_d_2179_99" x="796.619" y="-1122.87" width="2255.67" height="2255.67" filterUnits="userSpaceOnUse" color-interpolation-filters="sRGB">
<feFlood flood-opacity="0" result="BackgroundImageFix"/>
<feColorMatrix in="SourceAlpha" type="matrix" values="0 0 0 0 0 0 0 0 0 0 0 0 0 0 0 0 0 0 127 0" result="hardAlpha"/>
<feOffset dy="4.51341"/>
<feGaussianBlur stdDeviation="12.4119"/>
<feComposite in2="hardAlpha" operator="out"/>
<feColorMatrix type="matrix" values="0 0 0 0 0 0 0 0 0 0 0 0 0 0 0 0 0 0 0.25 0"/>
<feBlend mode="normal" in2="BackgroundImageFix" result="effect1_dropShadow_2179_99"/>
<feBlend mode="normal" in="SourceGraphic" in2="effect1_dropShadow_2179_99" result="shape"/>
</filter>
<filter id="filter5_d_2179_99" x="1017.22" y="-902.265" width="1814.46" height="1814.46" filterUnits="userSpaceOnUse" color-interpolation-filters="sRGB">
<feFlood flood-opacity="0" result="BackgroundImageFix"/>
<feColorMatrix in="SourceAlpha" type="matrix" values="0 0 0 0 0 0 0 0 0 0 0 0 0 0 0 0 0 0 127 0" result="hardAlpha"/>
<feOffset dy="4.51341"/>
<feGaussianBlur stdDeviation="12.4119"/>
<feComposite in2="hardAlpha" operator="out"/>
<feColorMatrix type="matrix" values="0 0 0 0 0 0 0 0 0 0 0 0 0 0 0 0 0 0 0.25 0"/>
<feBlend mode="normal" in2="BackgroundImageFix" result="effect1_dropShadow_2179_99"/>
<feBlend mode="normal" in="SourceGraphic" in2="effect1_dropShadow_2179_99" result="shape"/>
</filter>
<filter id="filter6_d_2179_99" x="1193.7" y="-725.784" width="1461.5" height="1461.5" filterUnits="userSpaceOnUse" color-interpolation-filters="sRGB">
<feFlood flood-opacity="0" result="BackgroundImageFix"/>
<feColorMatrix in="SourceAlpha" type="matrix" values="0 0 0 0 0 0 0 0 0 0 0 0 0 0 0 0 0 0 127 0" result="hardAlpha"/>
<feOffset dy="4.51341"/>
<feGaussianBlur stdDeviation="12.4119"/>
<feComposite in2="hardAlpha" operator="out"/>
<feColorMatrix type="matrix" values="0 0 0 0 0 0 0 0 0 0 0 0 0 0 0 0 0 0 0.25 0"/>
<feBlend mode="normal" in2="BackgroundImageFix" result="effect1_dropShadow_2179_99"/>
<feBlend mode="normal" in="SourceGraphic" in2="effect1_dropShadow_2179_99" result="shape"/>
</filter>
<filter id="filter7_d_2179_99" x="1334.89" y="-584.599" width="1179.13" height="1179.13" filterUnits="userSpaceOnUse" color-interpolation-filters="sRGB">
<feFlood flood-opacity="0" result="BackgroundImageFix"/>
<feColorMatrix in="SourceAlpha" type="matrix" values="0 0 0 0 0 0 0 0 0 0 0 0 0 0 0 0 0 0 127 0" result="hardAlpha"/>
<feOffset dy="4.51341"/>
<feGaussianBlur stdDeviation="12.4119"/>
<feComposite in2="hardAlpha" operator="out"/>
<feColorMatrix type="matrix" values="0 0 0 0 0 0 0 0 0 0 0 0 0 0 0 0 0 0 0.25 0"/>
<feBlend mode="normal" in2="BackgroundImageFix" result="effect1_dropShadow_2179_99"/>
<feBlend mode="normal" in="SourceGraphic" in2="effect1_dropShadow_2179_99" result="shape"/>
</filter>
<filter id="filter8_d_2179_99" x="1476.07" y="-443.414" width="896.759" height="896.759" filterUnits="userSpaceOnUse" color-interpolation-filters="sRGB">
<feFlood flood-opacity="0" result="BackgroundImageFix"/>
<feColorMatrix in="SourceAlpha" type="matrix" values="0 0 0 0 0 0 0 0 0 0 0 0 0 0 0 0 0 0 127 0" result="hardAlpha"/>
<feOffset dy="4.51341"/>
<feGaussianBlur stdDeviation="12.4119"/>
<feComposite in2="hardAlpha" operator="out"/>
<feColorMatrix type="matrix" values="0 0 0 0 0 0 0 0 0 0 0 0 0 0 0 0 0 0 0.25 0"/>
<feBlend mode="normal" in2="BackgroundImageFix" result="effect1_dropShadow_2179_99"/>
<feBlend mode="normal" in="SourceGraphic" in2="effect1_dropShadow_2179_99" result="shape"/>
</filter>
<clipPath id="clip0_2179_99">
<rect width="1920" height="1045" fill="white" transform="translate(4)"/>
</clipPath>
<clipPath id="clip1_2179_99">
<rect width="181.828" height="194.179" fill="white" transform="translate(872.586 261.743)"/>
</clipPath>
</defs>
</svg>
