<svg width="1440" height="596" viewBox="0 0 1440 596" fill="none" xmlns="http://www.w3.org/2000/svg">
<rect width="1440" height="596" fill="#307A70"/>
<g clip-path="url(#clip0_2179_99)">
<path d="M635.665 111H689.703C697.942 111 703.979 112.05 707.811 114.151C711.835 116.061 714.422 119.117 715.572 123.319C716.913 127.33 717.584 132.392 717.584 138.504V183.197C717.584 190.073 717.009 196.567 715.859 202.679C714.709 208.6 711.739 213.47 706.949 217.29C702.158 220.919 694.302 222.734 683.379 222.734H650.324V288.628H635.665V111ZM679.642 210.987C687.307 210.987 693.056 209.077 696.888 205.257C700.913 201.246 702.925 194.752 702.925 185.776V144.234C702.925 136.021 701.487 130.386 698.613 127.33C695.93 124.274 690.852 122.746 683.379 122.746H650.324V210.987H679.642Z" fill="white"/>
<path d="M667.321 288.857C664.97 288.857 662.952 288.679 661.265 288.322C659.63 287.915 658.378 287.202 657.51 286.183C656.692 285.114 656.283 283.637 656.283 281.752V248.06C656.283 245.208 657.229 243.323 659.119 242.407C661.061 241.439 663.795 240.955 667.321 240.955C670.744 240.955 673.35 241.439 675.139 242.407C676.979 243.374 677.898 245.284 677.898 248.137V256.235L673.989 256.617V248.824C673.989 246.889 673.402 245.615 672.226 245.004C671.102 244.393 669.467 244.087 667.321 244.087C665.175 244.087 663.437 244.367 662.109 244.928C660.831 245.488 660.192 246.761 660.192 248.748V281.217C660.192 282.542 660.473 283.535 661.035 284.197C661.649 284.808 662.492 285.216 663.565 285.419C664.689 285.572 665.941 285.648 667.321 285.648C668.7 285.648 669.876 285.572 670.847 285.419C671.869 285.216 672.661 284.808 673.223 284.197C673.785 283.535 674.066 282.542 674.066 281.217V266.472H665.634L666.094 263.187H677.898V281.752C677.898 283.637 677.49 285.114 676.672 286.183C675.854 287.202 674.653 287.915 673.069 288.322C671.485 288.679 669.569 288.857 667.321 288.857ZM685.866 241.261H700.276C702.474 241.261 704.083 241.541 705.105 242.101C706.179 242.61 706.868 243.425 707.175 244.546C707.533 245.615 707.712 246.965 707.712 248.595V257.152C707.712 258.985 707.558 260.717 707.252 262.347C706.945 263.926 706.153 265.224 704.875 266.243C703.598 267.211 701.503 267.695 698.59 267.695H689.775V288.628H685.866V241.261ZM705.795 289.621L696.981 267.466L699.74 267.16L700.813 267.466L701.043 268L709.398 288.246L705.795 289.621ZM697.594 264.562C699.638 264.562 701.171 264.053 702.193 263.034C703.266 262.016 703.802 260.284 703.802 257.839V250.123C703.802 247.933 703.419 246.43 702.653 245.615C701.937 244.801 700.583 244.393 698.59 244.393H689.775V264.562H697.594ZM712.667 288.628L722.785 241.261H728.61L738.574 288.628H734.512L732.059 277.092L732.902 277.856H718.262L718.952 277.092L716.653 288.628H712.667ZM719.029 275.182L718.646 274.723H732.596L732.059 275.182L726.464 246.227L726.311 245.692H725.008L724.854 246.227L719.029 275.182ZM744.551 241.261H765.707V244.393H748.46V260.437H764.48L763.867 263.493H748.46V288.628H744.551V241.261ZM772.172 241.261H776.081V288.628H772.172V241.261ZM790.489 244.393H782.058V241.261H802.983V244.393H794.398V288.628H790.489V244.393Z" fill="white"/>
</g>
<rect x="530" y="324.86" width="52.7875" height="52.7875" rx="26.3938" fill="#1F77B4"/>
<path d="M545.005 349.893C544.974 349.607 544.845 349.385 544.618 349.225C544.394 349.066 544.101 348.986 543.741 348.986C543.488 348.986 543.271 349.025 543.09 349.101C542.909 349.177 542.77 349.281 542.674 349.412C542.578 349.543 542.529 349.692 542.527 349.86C542.527 350 542.559 350.121 542.622 350.224C542.687 350.326 542.776 350.413 542.887 350.485C542.998 350.555 543.122 350.614 543.257 350.662C543.392 350.71 543.528 350.75 543.666 350.783L544.294 350.94C544.547 350.999 544.791 351.079 545.024 351.179C545.26 351.28 545.47 351.406 545.656 351.559C545.844 351.712 545.992 351.896 546.101 352.112C546.21 352.328 546.265 352.581 546.265 352.871C546.265 353.264 546.164 353.61 545.964 353.909C545.763 354.206 545.473 354.438 545.093 354.606C544.716 354.772 544.258 354.855 543.722 354.855C543.2 354.855 542.747 354.774 542.363 354.613C541.981 354.451 541.682 354.216 541.466 353.906C541.253 353.596 541.137 353.218 541.12 352.773H542.314C542.332 353.007 542.404 353.201 542.53 353.356C542.657 353.511 542.822 353.626 543.024 353.703C543.23 353.779 543.459 353.817 543.712 353.817C543.976 353.817 544.207 353.778 544.406 353.7C544.606 353.619 544.764 353.507 544.877 353.366C544.99 353.222 545.048 353.054 545.05 352.862C545.048 352.687 544.997 352.543 544.897 352.43C544.796 352.314 544.655 352.218 544.474 352.142C544.295 352.063 544.086 351.993 543.846 351.932L543.083 351.736C542.531 351.594 542.095 351.379 541.774 351.091C541.456 350.801 541.296 350.416 541.296 349.936C541.296 349.541 541.403 349.195 541.617 348.898C541.833 348.601 542.127 348.371 542.497 348.207C542.868 348.042 543.288 347.959 543.758 347.959C544.233 347.959 544.65 348.042 545.008 348.207C545.368 348.371 545.65 348.599 545.856 348.891C546.061 349.182 546.167 349.515 546.173 349.893H545.005ZM549.521 354.852C549.017 354.852 548.581 354.747 548.215 354.537C547.85 354.326 547.57 354.027 547.373 353.641C547.177 353.252 547.079 352.795 547.079 352.269C547.079 351.752 547.177 351.298 547.373 350.908C547.572 350.515 547.849 350.209 548.205 349.991C548.56 349.771 548.978 349.661 549.458 349.661C549.768 349.661 550.061 349.711 550.336 349.811C550.613 349.909 550.857 350.062 551.069 350.269C551.283 350.477 551.451 350.741 551.573 351.061C551.695 351.38 551.756 351.76 551.756 352.2V352.564H547.635V351.765H550.62C550.618 351.538 550.569 351.336 550.473 351.16C550.377 350.981 550.243 350.84 550.07 350.737C549.9 350.635 549.702 350.584 549.475 350.584C549.233 350.584 549.02 350.642 548.837 350.76C548.653 350.876 548.51 351.029 548.408 351.219C548.307 351.406 548.256 351.612 548.254 351.837V352.534C548.254 352.827 548.307 353.078 548.414 353.287C548.521 353.494 548.671 353.654 548.863 353.765C549.055 353.874 549.279 353.929 549.537 353.929C549.709 353.929 549.865 353.905 550.005 353.857C550.145 353.806 550.266 353.733 550.368 353.637C550.471 353.541 550.548 353.422 550.601 353.281L551.707 353.405C551.637 353.697 551.504 353.953 551.308 354.171C551.113 354.387 550.865 354.555 550.561 354.675C550.258 354.793 549.911 354.852 549.521 354.852ZM553.943 351.808V354.753H552.758V349.726H553.891V350.58H553.95C554.065 350.299 554.25 350.075 554.503 349.909C554.758 349.743 555.074 349.661 555.449 349.661C555.796 349.661 556.098 349.735 556.356 349.883C556.615 350.032 556.816 350.246 556.958 350.528C557.102 350.809 557.173 351.151 557.17 351.552V354.753H555.986V351.736C555.986 351.4 555.898 351.137 555.724 350.947C555.551 350.757 555.312 350.662 555.007 350.662C554.8 350.662 554.615 350.708 554.454 350.8C554.295 350.889 554.169 351.019 554.077 351.189C553.988 351.359 553.943 351.565 553.943 351.808ZM562.348 351.055L561.268 351.173C561.238 351.064 561.184 350.961 561.108 350.865C561.034 350.769 560.933 350.692 560.807 350.633C560.68 350.574 560.525 350.544 560.342 350.544C560.095 350.544 559.888 350.598 559.72 350.705C559.554 350.812 559.473 350.95 559.475 351.12C559.473 351.267 559.526 351.385 559.635 351.477C559.746 351.569 559.93 351.644 560.185 351.703L561.042 351.886C561.518 351.989 561.872 352.151 562.103 352.374C562.336 352.596 562.454 352.888 562.456 353.248C562.454 353.564 562.362 353.844 562.178 354.086C561.997 354.326 561.745 354.513 561.422 354.649C561.099 354.784 560.728 354.852 560.309 354.852C559.694 354.852 559.199 354.723 558.823 354.465C558.448 354.206 558.224 353.845 558.152 353.382L559.308 353.271C559.36 353.498 559.471 353.669 559.642 353.785C559.812 353.9 560.033 353.958 560.306 353.958C560.588 353.958 560.813 353.9 560.984 353.785C561.156 353.669 561.242 353.526 561.242 353.356C561.242 353.212 561.187 353.093 561.075 352.999C560.966 352.905 560.796 352.833 560.565 352.783L559.707 352.603C559.225 352.503 558.868 352.334 558.637 352.096C558.406 351.856 558.291 351.552 558.293 351.186C558.291 350.876 558.375 350.608 558.545 350.381C558.718 350.152 558.956 349.975 559.262 349.85C559.57 349.724 559.924 349.661 560.326 349.661C560.915 349.661 561.379 349.786 561.717 350.037C562.057 350.288 562.268 350.627 562.348 351.055ZM565.626 354.852C565.135 354.852 564.71 354.744 564.35 354.528C563.99 354.312 563.711 354.009 563.512 353.621C563.316 353.233 563.217 352.779 563.217 352.259C563.217 351.74 563.316 351.285 563.512 350.895C563.711 350.504 563.99 350.201 564.35 349.985C564.71 349.769 565.135 349.661 565.626 349.661C566.117 349.661 566.543 349.769 566.903 349.985C567.263 350.201 567.541 350.504 567.737 350.895C567.936 351.285 568.035 351.74 568.035 352.259C568.035 352.779 567.936 353.233 567.737 353.621C567.541 354.009 567.263 354.312 566.903 354.528C566.543 354.744 566.117 354.852 565.626 354.852ZM565.633 353.902C565.899 353.902 566.122 353.829 566.301 353.683C566.48 353.535 566.613 353.336 566.7 353.087C566.789 352.839 566.834 352.562 566.834 352.256C566.834 351.948 566.789 351.67 566.7 351.421C566.613 351.171 566.48 350.971 566.301 350.823C566.122 350.674 565.899 350.6 565.633 350.6C565.36 350.6 565.133 350.674 564.952 350.823C564.773 350.971 564.639 351.171 564.55 351.421C564.462 351.67 564.419 351.948 564.419 352.256C564.419 352.562 564.462 352.839 564.55 353.087C564.639 353.336 564.773 353.535 564.952 353.683C565.133 353.829 565.36 353.902 565.633 353.902ZM569.041 354.753V349.726H570.19V350.564H570.242C570.334 350.274 570.491 350.05 570.713 349.893C570.938 349.734 571.195 349.654 571.483 349.654C571.548 349.654 571.621 349.657 571.702 349.664C571.785 349.668 571.854 349.676 571.908 349.687V350.777C571.858 350.759 571.778 350.744 571.669 350.731C571.562 350.716 571.459 350.708 571.358 350.708C571.142 350.708 570.948 350.755 570.776 350.849C570.605 350.94 570.471 351.068 570.373 351.232C570.275 351.395 570.226 351.584 570.226 351.798V354.753H569.041Z" fill="white"/>
<path d="M626.58 351.253L621.835 348.514V353.993L626.58 351.253ZM594.944 351.253V351.728H622.31V351.253V350.779H594.944V351.253Z" fill="white"/>
<rect x="638.737" y="324.86" width="52.7875" height="52.7875" rx="26.3938" fill="#FF7F0E"/>
<path d="M646.359 354.753V348.05H650.653V349.068H647.573V350.888H650.359V351.906H647.573V354.753H646.359ZM653.564 354.852C653.06 354.852 652.625 354.747 652.258 354.537C651.894 354.326 651.613 354.027 651.417 353.641C651.22 353.252 651.122 352.795 651.122 352.269C651.122 351.752 651.22 351.298 651.417 350.908C651.615 350.515 651.893 350.209 652.248 349.991C652.604 349.771 653.022 349.661 653.502 349.661C653.812 349.661 654.104 349.711 654.379 349.811C654.656 349.909 654.9 350.062 655.112 350.269C655.326 350.477 655.494 350.741 655.616 351.061C655.738 351.38 655.799 351.76 655.799 352.2V352.564H651.679V351.765H654.664C654.662 351.538 654.612 351.336 654.516 351.16C654.42 350.981 654.286 350.84 654.114 350.737C653.944 350.635 653.745 350.584 653.518 350.584C653.276 350.584 653.063 350.642 652.88 350.76C652.697 350.876 652.554 351.029 652.451 351.219C652.351 351.406 652.299 351.612 652.297 351.837V352.534C652.297 352.827 652.351 353.078 652.458 353.287C652.565 353.494 652.714 353.654 652.906 353.765C653.098 353.874 653.323 353.929 653.58 353.929C653.753 353.929 653.909 353.905 654.048 353.857C654.188 353.806 654.309 353.733 654.412 353.637C654.514 353.541 654.592 353.422 654.644 353.281L655.75 353.405C655.681 353.697 655.547 353.953 655.351 354.171C655.157 354.387 654.908 354.555 654.605 354.675C654.301 354.793 653.955 354.852 653.564 354.852ZM658.248 354.855C657.93 354.855 657.643 354.798 657.388 354.685C657.135 354.569 656.934 354.399 656.785 354.174C656.639 353.949 656.566 353.672 656.566 353.343C656.566 353.059 656.619 352.825 656.723 352.639C656.828 352.454 656.971 352.305 657.152 352.194C657.333 352.083 657.537 351.999 657.764 351.942C657.993 351.883 658.23 351.84 658.474 351.814C658.769 351.784 659.008 351.756 659.191 351.732C659.374 351.706 659.508 351.667 659.59 351.615C659.676 351.56 659.718 351.476 659.718 351.363V351.343C659.718 351.096 659.645 350.905 659.499 350.77C659.353 350.635 659.142 350.567 658.867 350.567C658.577 350.567 658.347 350.63 658.176 350.757C658.008 350.884 657.895 351.033 657.836 351.205L656.73 351.048C656.817 350.743 656.961 350.488 657.162 350.282C657.363 350.075 657.608 349.92 657.898 349.818C658.188 349.713 658.509 349.661 658.861 349.661C659.103 349.661 659.344 349.689 659.584 349.746C659.824 349.802 660.043 349.896 660.242 350.027C660.44 350.156 660.6 350.332 660.72 350.554C660.842 350.777 660.903 351.055 660.903 351.389V354.753H659.764V354.063H659.725C659.653 354.202 659.551 354.333 659.42 354.456C659.291 354.576 659.129 354.673 658.933 354.747C658.738 354.819 658.51 354.855 658.248 354.855ZM658.556 353.984C658.794 353.984 659 353.937 659.175 353.844C659.349 353.748 659.484 353.621 659.577 353.464C659.673 353.307 659.721 353.135 659.721 352.95V352.358C659.684 352.388 659.621 352.416 659.532 352.443C659.444 352.469 659.346 352.492 659.237 352.511C659.128 352.531 659.02 352.548 658.913 352.564C658.806 352.579 658.713 352.592 658.635 352.603C658.458 352.627 658.3 352.666 658.16 352.721C658.02 352.775 657.91 352.852 657.83 352.95C657.749 353.046 657.708 353.17 657.708 353.323C657.708 353.541 657.788 353.706 657.947 353.817C658.107 353.929 658.31 353.984 658.556 353.984ZM664.605 349.726V350.642H661.715V349.726H664.605ZM662.428 348.522H663.613V353.241C663.613 353.401 663.637 353.523 663.685 353.608C663.735 353.691 663.801 353.748 663.881 353.778C663.962 353.809 664.052 353.824 664.15 353.824C664.224 353.824 664.292 353.818 664.353 353.808C664.416 353.797 664.464 353.787 664.497 353.778L664.696 354.704C664.633 354.726 664.543 354.75 664.425 354.776C664.309 354.803 664.167 354.818 663.999 354.822C663.702 354.831 663.435 354.786 663.197 354.688C662.959 354.588 662.771 354.433 662.631 354.223C662.494 354.014 662.426 353.752 662.428 353.438V348.522ZM668.8 352.639V349.726H669.985V354.753H668.836V353.86H668.784C668.67 354.141 668.484 354.372 668.224 354.55C667.966 354.729 667.649 354.819 667.271 354.819C666.942 354.819 666.651 354.746 666.398 354.6C666.147 354.451 665.95 354.236 665.808 353.955C665.667 353.671 665.596 353.329 665.596 352.927V349.726H666.78V352.744C666.78 353.062 666.868 353.315 667.042 353.503C667.217 353.691 667.446 353.785 667.73 353.785C667.904 353.785 668.073 353.742 668.237 353.657C668.401 353.572 668.535 353.445 668.64 353.277C668.746 353.107 668.8 352.894 668.8 352.639ZM671.203 354.753V349.726H672.352V350.564H672.404C672.496 350.274 672.653 350.05 672.876 349.893C673.1 349.734 673.357 349.654 673.645 349.654C673.71 349.654 673.783 349.657 673.864 349.664C673.947 349.668 674.016 349.676 674.07 349.687V350.777C674.02 350.759 673.941 350.744 673.831 350.731C673.724 350.716 673.621 350.708 673.52 350.708C673.304 350.708 673.11 350.755 672.938 350.849C672.768 350.94 672.633 351.068 672.535 351.232C672.437 351.395 672.388 351.584 672.388 351.798V354.753H671.203ZM676.876 354.852C676.372 354.852 675.937 354.747 675.57 354.537C675.206 354.326 674.925 354.027 674.729 353.641C674.533 353.252 674.434 352.795 674.434 352.269C674.434 351.752 674.533 351.298 674.729 350.908C674.928 350.515 675.205 350.209 675.56 349.991C675.916 349.771 676.334 349.661 676.814 349.661C677.124 349.661 677.416 349.711 677.691 349.811C677.968 349.909 678.213 350.062 678.424 350.269C678.638 350.477 678.806 350.741 678.928 351.061C679.051 351.38 679.112 351.76 679.112 352.2V352.564H674.991V351.765H677.976C677.974 351.538 677.925 351.336 677.829 351.16C677.733 350.981 677.598 350.84 677.426 350.737C677.256 350.635 677.057 350.584 676.83 350.584C676.588 350.584 676.375 350.642 676.192 350.76C676.009 350.876 675.866 351.029 675.763 351.219C675.663 351.406 675.612 351.612 675.609 351.837V352.534C675.609 352.827 675.663 353.078 675.77 353.287C675.877 353.494 676.026 353.654 676.218 353.765C676.41 353.874 676.635 353.929 676.893 353.929C677.065 353.929 677.221 353.905 677.361 353.857C677.5 353.806 677.621 353.733 677.724 353.637C677.826 353.541 677.904 353.422 677.956 353.281L679.063 353.405C678.993 353.697 678.86 353.953 678.663 354.171C678.469 354.387 678.22 354.555 677.917 354.675C677.614 354.793 677.267 354.852 676.876 354.852ZM684.087 351.055L683.007 351.173C682.977 351.064 682.923 350.961 682.847 350.865C682.773 350.769 682.672 350.692 682.546 350.633C682.419 350.574 682.264 350.544 682.081 350.544C681.835 350.544 681.627 350.598 681.459 350.705C681.293 350.812 681.212 350.95 681.214 351.12C681.212 351.267 681.265 351.385 681.374 351.477C681.485 351.569 681.669 351.644 681.924 351.703L682.782 351.886C683.257 351.989 683.611 352.151 683.842 352.374C684.075 352.596 684.193 352.888 684.195 353.248C684.193 353.564 684.101 353.844 683.917 354.086C683.736 354.326 683.484 354.513 683.161 354.649C682.838 354.784 682.467 354.852 682.048 354.852C681.433 354.852 680.938 354.723 680.562 354.465C680.187 354.206 679.963 353.845 679.891 353.382L681.047 353.271C681.099 353.498 681.21 353.669 681.381 353.785C681.551 353.9 681.772 353.958 682.045 353.958C682.327 353.958 682.552 353.9 682.723 353.785C682.895 353.669 682.981 353.526 682.981 353.356C682.981 353.212 682.926 353.093 682.814 352.999C682.705 352.905 682.535 352.833 682.304 352.783L681.446 352.603C680.964 352.503 680.607 352.334 680.376 352.096C680.145 351.856 680.03 351.552 680.032 351.186C680.03 350.876 680.114 350.608 680.284 350.381C680.457 350.152 680.696 349.975 681.001 349.85C681.309 349.724 681.663 349.661 682.065 349.661C682.654 349.661 683.118 349.786 683.456 350.037C683.796 350.288 684.007 350.627 684.087 351.055Z" fill="white"/>
<path d="M735.318 351.253L730.572 348.514V353.993L735.318 351.253ZM703.682 351.253V351.728H731.047V351.253V350.779H703.682V351.253Z" fill="white"/>
<rect x="747.475" y="324.86" width="52.7875" height="52.7875" rx="26.3938" fill="#41A941"/>
<path d="M760.714 348.05H762.199L764.189 352.907H764.268L766.258 348.05H767.744V354.753H766.579V350.148H766.517L764.664 354.734H763.793L761.941 350.138H761.879V354.753H760.714V348.05ZM771.207 354.852C770.716 354.852 770.29 354.744 769.93 354.528C769.57 354.312 769.291 354.009 769.092 353.621C768.896 353.233 768.798 352.779 768.798 352.259C768.798 351.74 768.896 351.285 769.092 350.895C769.291 350.504 769.57 350.201 769.93 349.985C770.29 349.769 770.716 349.661 771.207 349.661C771.698 349.661 772.123 349.769 772.483 349.985C772.843 350.201 773.122 350.504 773.318 350.895C773.517 351.285 773.616 351.74 773.616 352.259C773.616 352.779 773.517 353.233 773.318 353.621C773.122 354.009 772.843 354.312 772.483 354.528C772.123 354.744 771.698 354.852 771.207 354.852ZM771.213 353.902C771.48 353.902 771.702 353.829 771.881 353.683C772.06 353.535 772.193 353.336 772.28 353.087C772.37 352.839 772.415 352.562 772.415 352.256C772.415 351.948 772.37 351.67 772.28 351.421C772.193 351.171 772.06 350.971 771.881 350.823C771.702 350.674 771.48 350.6 771.213 350.6C770.941 350.6 770.714 350.674 770.533 350.823C770.354 350.971 770.219 351.171 770.13 351.421C770.043 351.67 769.999 351.948 769.999 352.256C769.999 352.562 770.043 352.839 770.13 353.087C770.219 353.336 770.354 353.535 770.533 353.683C770.714 353.829 770.941 353.902 771.213 353.902ZM776.487 354.842C776.092 354.842 775.739 354.74 775.427 354.537C775.115 354.334 774.868 354.04 774.687 353.654C774.506 353.267 774.415 352.798 774.415 352.246C774.415 351.688 774.507 351.216 774.69 350.832C774.876 350.446 775.125 350.155 775.44 349.958C775.754 349.76 776.104 349.661 776.49 349.661C776.785 349.661 777.027 349.711 777.217 349.811C777.407 349.909 777.557 350.028 777.669 350.168C777.78 350.305 777.866 350.435 777.927 350.557H777.976V348.05H779.164V354.753H777.999V353.961H777.927C777.866 354.084 777.778 354.213 777.662 354.351C777.546 354.486 777.394 354.602 777.204 354.698C777.014 354.794 776.775 354.842 776.487 354.842ZM776.818 353.87C777.069 353.87 777.282 353.802 777.459 353.667C777.636 353.529 777.77 353.338 777.862 353.094C777.953 352.85 777.999 352.565 777.999 352.24C777.999 351.915 777.953 351.632 777.862 351.392C777.772 351.152 777.639 350.965 777.462 350.832C777.288 350.699 777.073 350.633 776.818 350.633C776.554 350.633 776.333 350.701 776.157 350.839C775.98 350.976 775.847 351.166 775.757 351.408C775.668 351.651 775.623 351.928 775.623 352.24C775.623 352.554 775.668 352.834 775.757 353.081C775.849 353.325 775.983 353.518 776.16 353.66C776.339 353.8 776.558 353.87 776.818 353.87ZM782.653 354.852C782.149 354.852 781.713 354.747 781.347 354.537C780.982 354.326 780.702 354.027 780.506 353.641C780.309 353.252 780.211 352.795 780.211 352.269C780.211 351.752 780.309 351.298 780.506 350.908C780.704 350.515 780.981 350.209 781.337 349.991C781.693 349.771 782.11 349.661 782.59 349.661C782.9 349.661 783.193 349.711 783.468 349.811C783.745 349.909 783.989 350.062 784.201 350.269C784.415 350.477 784.583 350.741 784.705 351.061C784.827 351.38 784.888 351.76 784.888 352.2V352.564H780.767V351.765H783.752C783.75 351.538 783.701 351.336 783.605 351.16C783.509 350.981 783.375 350.84 783.203 350.737C783.032 350.635 782.834 350.584 782.607 350.584C782.365 350.584 782.152 350.642 781.969 350.76C781.785 350.876 781.642 351.029 781.54 351.219C781.439 351.406 781.388 351.612 781.386 351.837V352.534C781.386 352.827 781.439 353.078 781.546 353.287C781.653 353.494 781.803 353.654 781.995 353.765C782.187 353.874 782.412 353.929 782.669 353.929C782.841 353.929 782.997 353.905 783.137 353.857C783.277 353.806 783.398 353.733 783.5 353.637C783.603 353.541 783.68 353.422 783.733 353.281L784.839 353.405C784.769 353.697 784.636 353.953 784.44 354.171C784.246 354.387 783.997 354.555 783.693 354.675C783.39 354.793 783.043 354.852 782.653 354.852ZM787.075 348.05V354.753H785.891V348.05H787.075Z" fill="white"/>
<path d="M844.055 351.253L839.31 348.514V353.993L844.055 351.253ZM812.419 351.253V351.728H839.785V351.253V350.779H812.419V351.253Z" fill="white"/>
<rect x="856.212" y="324.86" width="52.7875" height="52.7875" rx="26.3938" fill="#D62728"/>
<path d="M872.709 349.253V342.55H877.003V343.568H873.923V345.388H876.709V346.406H873.923V349.253H872.709ZM878.057 349.253V344.226H879.242V349.253H878.057ZM878.653 343.513C878.465 343.513 878.304 343.45 878.169 343.326C878.033 343.199 877.966 343.048 877.966 342.871C877.966 342.692 878.033 342.54 878.169 342.416C878.304 342.289 878.465 342.226 878.653 342.226C878.843 342.226 879.004 342.289 879.137 342.416C879.273 342.54 879.34 342.692 879.34 342.871C879.34 343.048 879.273 343.199 879.137 343.326C879.004 343.45 878.843 343.513 878.653 343.513ZM881.645 346.308V349.253H880.46V344.226H881.593V345.08H881.652C881.768 344.799 881.952 344.575 882.205 344.409C882.46 344.243 882.776 344.161 883.151 344.161C883.498 344.161 883.8 344.235 884.058 344.383C884.317 344.532 884.518 344.746 884.66 345.028C884.804 345.309 884.875 345.651 884.873 346.052V349.253H883.688V346.236C883.688 345.9 883.6 345.637 883.426 345.447C883.253 345.257 883.015 345.162 882.709 345.162C882.502 345.162 882.317 345.208 882.156 345.3C881.997 345.389 881.871 345.519 881.78 345.689C881.69 345.859 881.645 346.065 881.645 346.308ZM887.524 349.355C887.205 349.355 886.918 349.298 886.663 349.185C886.41 349.069 886.209 348.899 886.061 348.674C885.914 348.449 885.841 348.172 885.841 347.843C885.841 347.559 885.894 347.325 885.998 347.139C886.103 346.954 886.246 346.805 886.427 346.694C886.608 346.583 886.812 346.499 887.039 346.442C887.268 346.383 887.505 346.34 887.75 346.314C888.044 346.284 888.283 346.256 888.466 346.232C888.65 346.206 888.783 346.167 888.866 346.115C888.951 346.06 888.993 345.976 888.993 345.863V345.843C888.993 345.596 888.92 345.405 888.774 345.27C888.628 345.135 888.417 345.067 888.142 345.067C887.852 345.067 887.622 345.13 887.452 345.257C887.284 345.384 887.17 345.533 887.111 345.705L886.005 345.548C886.092 345.243 886.236 344.988 886.437 344.782C886.638 344.575 886.883 344.42 887.173 344.318C887.464 344.213 887.784 344.161 888.136 344.161C888.378 344.161 888.619 344.189 888.859 344.246C889.099 344.302 889.318 344.396 889.517 344.527C889.716 344.656 889.875 344.832 889.995 345.054C890.117 345.277 890.178 345.555 890.178 345.889V349.253H889.039V348.563H889C888.928 348.702 888.826 348.833 888.695 348.956C888.567 349.076 888.404 349.173 888.208 349.247C888.014 349.319 887.786 349.355 887.524 349.355ZM887.831 348.484C888.069 348.484 888.275 348.437 888.45 348.344C888.625 348.248 888.759 348.121 888.853 347.964C888.949 347.807 888.997 347.635 888.997 347.45V346.858C888.959 346.888 888.896 346.916 888.807 346.943C888.719 346.969 888.621 346.992 888.512 347.011C888.403 347.031 888.295 347.048 888.188 347.064C888.081 347.079 887.988 347.092 887.91 347.103C887.733 347.127 887.575 347.166 887.435 347.221C887.296 347.275 887.185 347.352 887.105 347.45C887.024 347.546 886.984 347.67 886.984 347.823C886.984 348.041 887.063 348.206 887.223 348.317C887.382 348.429 887.585 348.484 887.831 348.484ZM892.554 342.55V349.253H891.37V342.55H892.554ZM872.437 355.393C872.406 355.107 872.277 354.885 872.05 354.725C871.826 354.566 871.533 354.486 871.173 354.486C870.92 354.486 870.703 354.525 870.522 354.601C870.341 354.677 870.202 354.781 870.106 354.912C870.01 355.043 869.961 355.192 869.959 355.36C869.959 355.5 869.991 355.621 870.054 355.724C870.119 355.826 870.208 355.913 870.319 355.985C870.43 356.055 870.554 356.114 870.689 356.162C870.824 356.21 870.96 356.25 871.098 356.283L871.726 356.44C871.98 356.499 872.223 356.579 872.456 356.679C872.692 356.78 872.902 356.906 873.088 357.059C873.276 357.212 873.424 357.396 873.533 357.612C873.642 357.828 873.697 358.081 873.697 358.371C873.697 358.764 873.596 359.11 873.396 359.409C873.195 359.706 872.905 359.938 872.525 360.106C872.148 360.272 871.69 360.355 871.154 360.355C870.632 360.355 870.179 360.274 869.795 360.113C869.413 359.951 869.115 359.716 868.898 359.406C868.685 359.096 868.569 358.718 868.552 358.273H869.746C869.764 358.507 869.836 358.701 869.962 358.856C870.089 359.011 870.254 359.126 870.456 359.203C870.662 359.279 870.891 359.317 871.144 359.317C871.408 359.317 871.639 359.278 871.838 359.2C872.038 359.119 872.196 359.007 872.309 358.866C872.422 358.722 872.48 358.554 872.482 358.362C872.48 358.187 872.429 358.043 872.329 357.93C872.228 357.814 872.088 357.718 871.906 357.642C871.727 357.563 871.518 357.493 871.278 357.432L870.515 357.236C869.963 357.094 869.527 356.879 869.206 356.591C868.888 356.301 868.728 355.916 868.728 355.436C868.728 355.041 868.835 354.695 869.049 354.398C869.265 354.101 869.559 353.871 869.929 353.707C870.3 353.542 870.72 353.459 871.19 353.459C871.665 353.459 872.082 353.542 872.44 353.707C872.8 353.871 873.083 354.099 873.288 354.391C873.493 354.682 873.599 355.015 873.605 355.393H872.437ZM877.237 355.226V356.142H874.347V355.226H877.237ZM875.061 354.022H876.246V358.741C876.246 358.901 876.27 359.023 876.318 359.108C876.368 359.191 876.433 359.248 876.514 359.278C876.595 359.309 876.684 359.324 876.782 359.324C876.857 359.324 876.924 359.318 876.985 359.308C877.049 359.297 877.097 359.287 877.129 359.278L877.329 360.204C877.266 360.226 877.175 360.25 877.057 360.276C876.942 360.303 876.8 360.318 876.632 360.322C876.335 360.331 876.068 360.286 875.83 360.188C875.592 360.088 875.403 359.933 875.264 359.723C875.126 359.514 875.059 359.252 875.061 358.938V354.022ZM879.675 360.355C879.356 360.355 879.069 360.298 878.814 360.185C878.561 360.069 878.36 359.899 878.212 359.674C878.066 359.449 877.993 359.172 877.993 358.843C877.993 358.559 878.045 358.325 878.15 358.139C878.254 357.954 878.397 357.805 878.578 357.694C878.76 357.583 878.964 357.499 879.191 357.442C879.42 357.383 879.656 357.34 879.901 357.314C880.195 357.284 880.434 357.256 880.618 357.232C880.801 357.206 880.934 357.167 881.017 357.115C881.102 357.06 881.145 356.976 881.145 356.863V356.843C881.145 356.596 881.071 356.405 880.925 356.27C880.779 356.135 880.568 356.067 880.294 356.067C880.003 356.067 879.773 356.13 879.603 356.257C879.435 356.384 879.321 356.533 879.263 356.705L878.156 356.548C878.244 356.243 878.388 355.988 878.588 355.782C878.789 355.575 879.035 355.42 879.325 355.318C879.615 355.213 879.936 355.161 880.287 355.161C880.529 355.161 880.77 355.189 881.01 355.246C881.25 355.302 881.47 355.396 881.668 355.527C881.867 355.656 882.026 355.832 882.146 356.054C882.268 356.277 882.329 356.555 882.329 356.889V360.253H881.19V359.563H881.151C881.079 359.702 880.978 359.833 880.847 359.956C880.718 360.076 880.555 360.173 880.359 360.247C880.165 360.319 879.937 360.355 879.675 360.355ZM879.983 359.484C880.22 359.484 880.427 359.437 880.601 359.344C880.776 359.248 880.91 359.121 881.004 358.964C881.1 358.807 881.148 358.635 881.148 358.45V357.858C881.111 357.888 881.047 357.916 880.958 357.943C880.871 357.969 880.773 357.992 880.663 358.011C880.554 358.031 880.446 358.048 880.339 358.064C880.232 358.079 880.14 358.092 880.061 358.103C879.884 358.127 879.726 358.166 879.587 358.221C879.447 358.275 879.337 358.352 879.256 358.45C879.175 358.546 879.135 358.67 879.135 358.823C879.135 359.041 879.215 359.206 879.374 359.317C879.533 359.429 879.736 359.484 879.983 359.484ZM886.031 355.226V356.142H883.141V355.226H886.031ZM883.855 354.022H885.039V358.741C885.039 358.901 885.063 359.023 885.111 359.108C885.162 359.191 885.227 359.248 885.308 359.278C885.389 359.309 885.478 359.324 885.576 359.324C885.65 359.324 885.718 359.318 885.779 359.308C885.842 359.297 885.89 359.287 885.923 359.278L886.123 360.204C886.06 360.226 885.969 360.25 885.851 360.276C885.736 360.303 885.594 360.318 885.426 360.322C885.129 360.331 884.862 360.286 884.624 360.188C884.386 360.088 884.197 359.933 884.058 359.723C883.92 359.514 883.852 359.252 883.855 358.938V354.022ZM890.226 358.139V355.226H891.411V360.253H890.262V359.36H890.21C890.097 359.641 889.91 359.872 889.65 360.05C889.393 360.229 889.075 360.319 888.698 360.319C888.368 360.319 888.077 360.246 887.824 360.1C887.573 359.951 887.377 359.736 887.235 359.455C887.093 359.171 887.022 358.829 887.022 358.427V355.226H888.207V358.244C888.207 358.562 888.294 358.815 888.469 359.003C888.643 359.191 888.872 359.285 889.156 359.285C889.331 359.285 889.5 359.242 889.663 359.157C889.827 359.072 889.961 358.945 890.066 358.777C890.173 358.607 890.226 358.394 890.226 358.139ZM896.603 356.555L895.523 356.673C895.492 356.564 895.439 356.461 895.363 356.365C895.288 356.269 895.188 356.192 895.061 356.133C894.935 356.074 894.78 356.044 894.597 356.044C894.35 356.044 894.143 356.098 893.975 356.205C893.809 356.312 893.727 356.45 893.729 356.62C893.727 356.767 893.781 356.885 893.89 356.977C894.001 357.069 894.184 357.144 894.44 357.203L895.297 357.386C895.773 357.489 896.126 357.651 896.358 357.874C896.591 358.096 896.709 358.388 896.711 358.748C896.709 359.064 896.616 359.344 896.433 359.586C896.252 359.826 896 360.013 895.677 360.149C895.354 360.284 894.983 360.352 894.564 360.352C893.949 360.352 893.453 360.223 893.078 359.965C892.703 359.706 892.479 359.345 892.407 358.882L893.562 358.771C893.615 358.998 893.726 359.169 893.896 359.285C894.066 359.4 894.288 359.458 894.561 359.458C894.842 359.458 895.068 359.4 895.238 359.285C895.411 359.169 895.497 359.026 895.497 358.856C895.497 358.712 895.441 358.593 895.33 358.499C895.221 358.405 895.051 358.333 894.819 358.283L893.962 358.103C893.48 358.003 893.123 357.834 892.891 357.596C892.66 357.356 892.546 357.052 892.548 356.686C892.546 356.376 892.63 356.108 892.8 355.881C892.972 355.652 893.211 355.475 893.517 355.35C893.824 355.224 894.179 355.161 894.58 355.161C895.17 355.161 895.633 355.286 895.971 355.537C896.312 355.788 896.522 356.127 896.603 356.555Z" fill="white"/>
<defs>
<clipPath id="clip0_2179_99">
<rect width="167.671" height="179.06" fill="white" transform="translate(635.665 111)"/>
</clipPath>
</defs>
</svg>
